<svg xmlns="http://www.w3.org/2000/svg" width="292" height="312"><path fill="#19365B" d="m122.984 7.596 3.732-.038 4.034.008q2.068-.007 4.136-.015a1326 1326 0 0 1 8.665.003c3.702.011 7.404-.009 11.107-.038 2.846-.018 5.692-.018 8.539-.012q2.047 0 4.095-.019c1.908-.014 3.816-.001 5.724.013h3.29C179 8 179 8 180.83 9.892c1.141 2.059 1.757 3.8 2.169 6.109l3.875.812c3.622.76 3.926.889 6.125 4.188.125 2.687.125 2.687 0 5l3.188-.313C200 26 200 26 202.875 27.937c4.451 6.416 3.312 15.642 3.441 23.223l.063 3.123q.096 4.89.184 9.78l.13 6.67q.16 8.133.307 16.267l2.082.113 2.73.2 2.708.175c2.83.584 3.808 1.18 5.48 3.512.188 3.187.188 3.187 0 6l3.375.375C227 98 227 98 229 100c.125 3.125.125 3.125 0 6l3.313.312c3.687.688 3.687.688 5.562 1.875 1.56 2.513 1.802 4.905 2.125 7.813l2.875.875C246 118 246 118 248 120c.306 2.57.51 5.048.625 7.625l.117 2.14c.094 1.745.177 3.49.258 5.235l2.813.25c3.187.75 3.187.75 4.862 2.413 1.7 2.999 1.702 5.037 1.706 8.479l.026 3.82-.019 4.182q.006 2.205.016 4.411c.014 3.992.008 7.983-.001 11.975-.008 4.178 0 8.356.004 12.533q.007 10.525-.016 21.051c-.016 8.11-.01 16.22.006 24.331q.02 10.446.007 20.892-.008 6.24.005 12.477.013 5.866-.015 11.733-.006 2.153.004 4.304c.008 1.96-.004 3.92-.017 5.88l-.003 3.322c-.467 3.643-1.763 6.332-4.378 8.947-2.095.115-4.194.16-6.292.177l-1.991.02q-3.274.028-6.549.041l-2.255.013q-5.91.03-11.821.044c-4.073.011-8.145.046-12.217.085-3.129.026-6.257.035-9.386.038q-2.252.008-4.503.035c-2.103.025-4.203.024-6.306.017l-3.624.018c-3.684-.588-4.858-1.52-7.056-4.488-.546-3.392-.546-3.392-.61-7.39-.016-.705-.032-1.41-.05-2.136-.048-2.241-.07-4.482-.09-6.724a1942 1942 0 0 0-.09-4.57c-.077-3.727-.118-7.452-.16-11.18l-29-1 .105 7.078q.034 3.4.06 6.801.022 2.36.061 4.72c.037 2.264.054 4.527.067 6.792.015.7.03 1.402.047 2.124 0 2.82-.16 5.092-1.345 7.67-3.06 2.784-6.326 2.373-10.258 2.333l-2.554.02a750 750 0 0 1-8.367-.007l-5.81.012q-6.09.008-12.183-.022c-5.207-.022-10.413-.01-15.62.015-4 .014-8 .01-12 0q-2.88-.005-5.76.01c-2.684.01-5.366-.006-8.05-.028l-2.408.024c-3.55-.055-5.591-.248-8.476-2.4-3.082-4.374-2.119-9.987-2.072-15.142l-.072-3.602.006-3.46-.002-3.16C58 266 58 266 60.289 263.627 63 262 63 262 67 262l.313-2.813C68 256 68 256 69.187 254.125 71.8 252.503 73.996 252.8 77 253v-4l-3.375-.875C70 247 70 247 68 245c-.625-2.125-.625-2.125-1-4l-3.312-.563C60 239 60 239 58.438 235.5L57 232c-2.963-1.238-2.963-1.238-6-2-2.132-2.187-2.936-3.52-3.34-6.565.015-.943.03-1.886.047-2.857l.03-3.105.075-3.223.042-3.27q.053-3.99.146-7.98l-2.75-.25c-3.762-.868-5.01-1.636-7.25-4.75-.61-2.855-.61-2.855-.75-6.188l-.164-3.777Q37.039 186.017 37 184l-.046-2.024a334 334 0 0 1 .004-12.703q.044-2.35.064-4.703c.028-2.441.092-4.88.166-7.32.005-.75.01-1.501.017-2.274.163-3.971.674-5.823 3.17-8.972C43 144 43 144 45.813 143.687L48 144l.313-3.375L49 137c3.435-2.29 4.985-2.178 9-2l-.25-2.75c.25-3.25.25-3.25 1.938-5.625 2.7-1.898 4.083-1.984 7.312-1.625l.375-3.375C68 118 68 118 70 116l2.5-.75L75 114l1-3c1-3 1-3 3.375-4.375C82 106 82 106 86 106l-1-29-7-2c-3.301-4.952-2.372-10.878-2.37-16.678-.005-2.248-.041-4.494-.08-6.742q-.009-2.148-.01-4.295c-.01-1.3-.017-2.601-.026-3.941C76 40 76 40 77.794 37.592c2.974-2.146 5.6-2.315 9.206-2.592l.25-2.813C88 29 88 29 89.75 27.125 92.363 25.818 94.115 25.76 97 26l-.187-2.813C97 20 97 20 98.093 18.344c2.79-1.966 5.221-1.865 8.594-2.032l3.575-.199L113 16l.313-2.313c1.43-5.588 4.233-6.064 9.671-6.091"/><path fill="#F9F9F9" d="m122.984 7.596 3.732-.038 4.034.008q2.068-.007 4.136-.015a1326 1326 0 0 1 8.665.003c3.702.011 7.404-.009 11.107-.038 2.846-.018 5.692-.018 8.539-.012q2.047 0 4.095-.019c1.908-.014 3.816-.001 5.724.013h3.29C179 8 179 8 180.83 9.892c1.141 2.059 1.757 3.8 2.169 6.109l3.875.812c3.622.76 3.926.889 6.125 4.188.125 2.687.125 2.687 0 5l3.188-.313C200 26 200 26 202.875 27.937c4.451 6.416 3.312 15.642 3.441 23.223l.063 3.123q.096 4.89.184 9.78l.13 6.67q.16 8.133.307 16.267l2.082.113 2.73.2 2.708.175c2.83.584 3.808 1.18 5.48 3.512.188 3.187.188 3.187 0 6l3.375.375C227 98 227 98 229 100c.125 3.125.125 3.125 0 6l3.313.312c3.687.688 3.687.688 5.562 1.875 1.56 2.513 1.802 4.905 2.125 7.813l2.875.875C246 118 246 118 248 120c.306 2.57.51 5.048.625 7.625l.117 2.14c.094 1.745.177 3.49.258 5.235l2.813.25c3.187.75 3.187.75 4.862 2.413 1.7 2.999 1.702 5.037 1.706 8.479l.026 3.82-.019 4.182q.006 2.205.016 4.411c.014 3.992.008 7.983-.001 11.975-.008 4.178 0 8.356.004 12.533q.007 10.525-.016 21.051c-.016 8.11-.01 16.22.006 24.331q.02 10.446.007 20.892-.008 6.24.005 12.477.013 5.866-.015 11.733-.006 2.153.004 4.304c.008 1.96-.004 3.92-.017 5.88l-.003 3.322c-.467 3.643-1.763 6.332-4.378 8.947-2.095.115-4.194.16-6.292.177l-1.991.02q-3.274.028-6.549.041l-2.255.013q-5.91.03-11.821.044c-4.073.011-8.145.046-12.217.085-3.129.026-6.257.035-9.386.038q-2.252.008-4.503.035c-2.103.025-4.203.024-6.306.017l-3.624.018c-3.684-.588-4.858-1.52-7.056-4.488-.546-3.392-.546-3.392-.61-7.39-.016-.705-.032-1.41-.05-2.136-.048-2.241-.07-4.482-.09-6.724a1942 1942 0 0 0-.09-4.57c-.077-3.727-.118-7.452-.16-11.18l-29-1 .105 7.078q.034 3.4.06 6.801.022 2.36.061 4.72c.037 2.264.054 4.527.067 6.792.015.7.03 1.402.047 2.124 0 2.82-.16 5.092-1.345 7.67-3.06 2.784-6.326 2.373-10.258 2.333l-2.554.02a750 750 0 0 1-8.367-.007l-5.81.012q-6.09.008-12.183-.022c-5.207-.022-10.413-.01-15.62.015-4 .014-8 .01-12 0q-2.88-.005-5.76.01c-2.684.01-5.366-.006-8.05-.028l-2.408.024c-3.55-.055-5.591-.248-8.476-2.4-3.082-4.374-2.119-9.987-2.072-15.142l-.072-3.602.006-3.46-.002-3.16C58 266 58 266 60.289 263.627 63 262 63 262 67 262l.313-2.813C68 256 68 256 69.187 254.125 71.8 252.503 73.996 252.8 77 253v-4l-3.375-.875C70 247 70 247 68 245c-.625-2.125-.625-2.125-1-4l-3.312-.563C60 239 60 239 58.438 235.5L57 232c-2.963-1.238-2.963-1.238-6-2-2.132-2.187-2.936-3.52-3.34-6.565.015-.943.03-1.886.047-2.857l.03-3.105.075-3.223.042-3.27q.053-3.99.146-7.98l-2.75-.25c-3.762-.868-5.01-1.636-7.25-4.75-.61-2.855-.61-2.855-.75-6.188l-.164-3.777Q37.039 186.017 37 184l-.046-2.024a334 334 0 0 1 .004-12.703q.044-2.35.064-4.703c.028-2.441.092-4.88.166-7.32.005-.75.01-1.501.017-2.274.163-3.971.674-5.823 3.17-8.972C43 144 43 144 45.813 143.687L48 144l.313-3.375L49 137c3.435-2.29 4.985-2.178 9-2l-.25-2.75c.25-3.25.25-3.25 1.938-5.625 2.7-1.898 4.083-1.984 7.312-1.625l.375-3.375C68 118 68 118 70 116l2.5-.75L75 114l1-3c1-3 1-3 3.375-4.375C82 106 82 106 86 106l-1-29-7-2c-3.301-4.952-2.372-10.878-2.37-16.678-.005-2.248-.041-4.494-.08-6.742q-.009-2.148-.01-4.295c-.01-1.3-.017-2.601-.026-3.941C76 40 76 40 77.794 37.592c2.974-2.146 5.6-2.315 9.206-2.592l.25-2.813C88 29 88 29 89.75 27.125 92.363 25.818 94.115 25.76 97 26l-.187-2.813C97 20 97 20 98.093 18.344c2.79-1.966 5.221-1.865 8.594-2.032l3.575-.199L113 16l.313-2.313c1.43-5.588 4.233-6.064 9.671-6.091M123 20v9h-17v9h-9v9H87v18h10l-.016 3.88q-.026 7.185-.039 14.37-.008 3.098-.02 6.197c-.013 2.984-.018 5.968-.023 8.951l-.015 2.76c0 6.015.432 11.865 1.113 17.842H87v9h-9v9h-9v9H59v9h-9v36h9v29h10v9h9v10h10v8h10v10H88v8h-9v10H69v10h72v-38h52v38h53v-20h-9v-8h8v-65h-9v-10h10v-36h-9v-18h-8v-9h-10v27h-9v-18h-9v-9h-18v-9h19v8h17v-8h-9v-9h-16V38h-10v-9h-11v-9z"/><path fill="#17212D" d="M175 220h9v8h9v10h9v19h35v8h9v20h-53v-38h-52v38H69v-10h10v-10h9v-8h10v-10h8v10h26v-17h-9q-.04-2.97-.062-5.937l-.036-3.34C123 228 123 228 124 227q3.5-.061 7 0v11h52v-10h-8z"/><path fill="#503633" d="M107 65q13.077-.034 26.155-.052 6.072-.007 12.144-.023 5.855-.016 11.71-.02 2.239-.003 4.477-.01 3.125-.01 6.25-.009l3.6-.006C174 65 174 65 175 66c.073 2.863.092 5.7.063 8.563l-.014 2.443q-.02 2.997-.049 5.994h7l1-9h11v27h-1v-8h-9v8h-10v18h-9v9h-50c-1.125-9-1.125-9-1.062-13.5l.027-2.594L114 110h-8V83h8v9h10V74h-17z"/><path fill="#303B4A" d="M123 20h50v9h11v9h10v36h-11v12l-1-3h-7l-.184-3.648-.254-4.727-.119-2.406c-.132-4.245-.132-4.245-1.443-8.219v-7l-76-1V38h9v-9h17z"/><path fill="#222126" d="M87 47h10v9l2.528-.007q11.827-.03 23.656-.045 6.08-.007 12.16-.023 5.874-.016 11.749-.02 2.233-.003 4.468-.01c14.367-.05 14.367-.05 21.439 1.105l1 8h-67v9h17v18h-10v-9h-8v27h8l1 18h50v-9h9v-18h10v-8h9v8h17v9h9v8h-17v-8h-19v9h-8v9h-9v9h-26v19h-8v-19h-18v-9H88v-9h10l-.494-4.337c-.541-5.437-.635-10.805-.604-16.265l.005-2.916c.005-3.036.018-6.071.03-9.107q.009-3.11.014-6.223Q96.968 72.577 97 65H87z"/><path fill="#121F2E" d="M183 137h10l1 18 17 1-1 17h-17v9h-10v10h10v-9h18v1l-16 1-1 6h25v-9h17v10h9v65h-8v-57h-35v9h-10v10h-7l-1-19h-9v-9h-18v-8h9l-1-10h9v-9h10l-.5-3.937c-.786-7.668-.58-15.366-.5-23.063"/><path fill="#151E2A" d="M97 137h9l1 19h7v8h9v28h8v8c-1.355.09-1.355.09-2.738.184l-3.575.254c-1.171.08-2.343.162-3.55.246-3.163.203-3.163.203-6.137 1.316l1 11c-2.067-3.1-2.245-3.73-2.195-7.23l.02-2.432.05-2.525.027-2.561c.024-2.084.06-4.168.098-6.252h-8v-9H87v9h-9v17h-1v-9h-8v19h9v9h-8v-8H59v-29h-9v-36h9v28h18v-10l10 1v-9l-10-1v-9h19c-.04-5.176-.04-5.176-.09-10.351-.021-5.427-.021-5.427 1.09-7.649"/><path fill="#1C416D" d="M202 200h35v57h-35c-.713-12.03-1.139-23.952-1-36h-8v-12h9z"/><path fill="#22446B" d="M219 119h10v9h8v18h9v36h-27v9h-25v-7l-1-1v9h-10v-10h10v-9h17v-9h9z"/><path fill="#4C5A6E" d="M123 20h50v1h-49v8h32v9h9v10h-9v8H97V38h9v-9h17z"/><path fill="#F2A46B" d="M106 83h8v9h10v-9h15v9h10v-8l25-1v17h-8v10q-3.406.039-6.812.063l-3.833.035C152 110 152 110 149 109v-8h-35v9h-8z"/><path fill="#CB6340" d="M107 65h67v18c-8.343 1.192-16.593 1.093-25 1v8h-10v-9h-15v-9h-17z"/><path fill="#F1A36A" d="M157 191h18v9h9v19h-10v9h-26v-28h9z"/><path fill="#F19F67" d="M87 183h19v9h8v27H87v-9h-9v-18h9z"/><path fill="#111A25" d="M106 156h8v8h9v28h8v8l-2.738.184-3.575.254c-1.171.08-2.343.162-3.55.246-3.163.203-3.163.203-6.137 1.316l1 11c-2.067-3.1-2.245-3.73-2.195-7.23l.02-2.432.05-2.525.027-2.561c.024-2.084.06-4.168.098-6.252h-8v-9l-3.937.063A59 59 0 0 1 98 183c-1-1-1-1-1.098-3.066L97 173h-9v-9h18z"/><path fill="#121A24" d="M87 47h10v9l2.528-.007q11.827-.03 23.656-.045 6.08-.007 12.16-.023 5.874-.016 11.749-.02 2.233-.003 4.468-.01c14.367-.05 14.367-.05 21.439 1.105l1 8h-68v10h-1V65H87z"/><path fill="#162840" d="M97 137h9q.294 4.5.563 9l.17 2.543.146 2.52.143 2.285c-.03 3.567-.58 7.112-1.022 10.652H88v9h9l1 10H87v9q-4.47.04-8.937.063l-2.577.025-2.45.01-2.27.016C69 192 69 192 68 191c-.141-2.67-.042-5.324 0-8h9v-10l10 1v-9l-10-1v-9h19c-.04-5.176-.04-5.176-.09-10.351-.021-5.427-.021-5.427 1.09-7.649"/><path fill="#121D2C" d="M184 93h9v8h17v9h9v8h-17v-8h-19v9h-8v9h-9v9h-10v-9h9v-9h9v-18h10z"/><path fill="#111C29" d="M220 182h16v10h9v65h-8v-57h-9v-9h-8z"/><path fill="#C3613F" d="M114 101h35v8l3 1h-3v10h-35z"/><path fill="#1B3E68" d="M59 146h1v9h8v-8c4.875 4.75 4.875 4.75 6 7l5-2-2 12 3.313-.062C84 164 84 164 87 165v9l-10-1v10H59z"/><path fill="#AD593E" d="m155.858 66.886 2.396.016 2.588.01 2.72.025 2.733.014q3.353.02 6.705.049v16c-7.975 1.33-15.942 1.088-24 1v8h-10V74l12-1 2-5c1-1 1-1 2.858-1.114"/><path fill="#28456A" d="M183 110h19v8h17v-8h1l-1 36h-9v-18h-9v-9h-18z"/><path fill="#477EB1" d="M228 200h9v57h-9z"/><path fill="#162E4D" d="M69 200h8l1 9 9 1v9h10v10l-3.375-.125c-3.669-.286-3.669-.286-5.625 2.125v-2h-9v9h9v1H78v-10h-9v-9h1v8h8v-9h-9z"/><path fill="#0F1822" d="M184 39h9v35h-10v12l-1-3h-7V66h9z"/><path fill="#DCDCDC" d="M257 140h1q.106 29.206.155 58.414c.016 9.04.037 18.081.071 27.122q.046 11.82.056 23.639c.004 4.172.013 8.344.035 12.517q.03 5.891.022 11.782.001 2.162.019 4.324c.015 1.968.01 3.937.003 5.906l.008 3.338c-.456 3.654-1.747 6.336-4.369 8.958-2.117.094-4.237.117-6.356.114h-2.01c-2.202 0-4.404-.009-6.607-.016l-4.57-.005q-6.023-.006-12.048-.024-6.142-.014-12.286-.02-12.062-.016-24.123-.049l-1-2 2.568.013q11.963.06 23.927.09 6.15.015 12.301.048 5.933.032 11.866.039 2.267.005 4.533.021c2.112.015 4.224.017 6.336.016l3.647.014c2.958.053 2.958.053 4.822-2.241.183-2.933.241-5.772.211-8.705l-.004-2.743c-.006-3.028-.027-6.055-.047-9.083l-.016-6.426q-.021-8.542-.065-17.086a12406 12406 0 0 1-.106-30.05l-.008-3.327c-.035-17.291.137-34.573.469-51.861l.06-3.337q.085-4.614.187-9.228l.052-2.783c.151-6.255.151-6.255 1.267-7.371"/><path fill="#204068" d="M219 119h10v9h8v18h-18z"/><path fill="#DC7747" d="M148 200h9v8l3.438-.062C164 208 164 208 165 209a63 63 0 0 1 .098 4.254l-.01 2.588-.025 2.72-.014 2.733q-.02 3.353-.049 6.705h-17z"/><path fill="#0D1620" d="M124 21h49v8h-49z"/><path fill="#DD7445" d="M106 192h8v27H97v-18h9z"/><path fill="#8E97A8" d="M210 164h9v10h-8v9h-18v9h-10v-10h10v-9h17z"/><path fill="#1B3E69" d="M229.063 264.938q2.468.008 4.935.013 6 .017 12.002.049v1h-9v9h-35v-9c9-1.325 17.989-1.11 27.063-1.062"/><path fill="#101A27" d="M237 146h8v35h-9z"/><path fill="#2E2628" d="M114 101h34v8h-34z"/><path fill="#121B25" d="M106 30h17v8h-9v8l-16 1v-9h8z"/><path fill="#0F1723" d="M140 75h25v8h-17v8h-8z"/><path fill="#1D3F68" d="M79 265a468 468 0 0 1 36 1v9H88v-9h-9z"/><path fill="#1E2E47" d="M184 203h1v16h7v-10h1v12h8v17h-8v-10h-9v-8h-9v8h-1v-9h10z"/><path fill="#372A26" d="M97 65h2v19h6v26h-7c-1-1-1-1-1.12-2.79l.006-2.363v-2.669l.016-2.9.005-2.956c.005-3.128.018-6.256.03-9.385q.009-3.172.014-6.345Q96.968 72.796 97 65"/><path fill="#173051" d="M78 219h19v10l-3.375-.125c-3.669-.286-3.669-.286-5.625 2.125v-2h-9v9h9v1H78v-10h-9v-9h1v8h8z"/><path fill="#B5C4CB" d="M228 200h8v28h-8z"/><path fill="#111C2A" d="m184 201 8.438-.062 2.661-.028c1.967-.007 3.935.04 5.901.09 1 1 1 1 1.063 4.563L202 209h-10v10h-7z"/><path fill="#E78451" d="M184 74h10v27h-1v-8h-8c-1.153-6.342-1.095-12.567-1-19"/><path fill="#442B24" d="M183 74h1c.197 3 .382 6 .563 9l.17 2.543c.309 5.316.09 10.193-.733 15.457h-9V83h7z"/><path fill="#172F4D" d="M115 266h18v9h-18z"/><path fill="#985039" d="M97 201h9v18h-9z"/><path fill="#13263D" d="M114 164h9v18h-9z"/><path fill="#E5E6E3" d="M219 146h9v18h-9z"/><path fill="#163051" d="M114 137h18v9h-18z"/><path fill="#E7E8E4" d="M210 128h9v18h-9z"/><path fill="#1F4068" d="M211 265h35v1h-9v9l-14-1 1-7h-13z"/><path fill="#444B55" d="M123 20h50v1h-49v8h8v9h-9v-8h-17v-1h17z"/><path fill="#101C28" d="M131 201h17v9h-17z"/><path fill="#EBEBE6" d="M193 173h17v9h-17z"/><path fill="#1A2938" d="M140 156h9v17h-9z"/><path fill="#152F4F" d="M140 137h17v9h-17z"/><path fill="#101C29" d="M228 129h9v17h-9z"/><path fill="#111C28" d="M132 137h8v19h-8z"/><path fill="#132D51" d="M210 164v9h-17v-8c5.74-.835 11.2-1.09 17-1"/><path fill="#9E5039" d="M157 210h8v18h-8z"/><path fill="#121822" d="M174 182v9h-17v-8c5.71-.74 11.242-1.105 17-1"/><path fill="#163052" d="M219 182h1v9h8v9h-9v-8h-26v-9h18v1l-16 1-1 6h25z"/><path fill="#111D2A" d="M202 192h17v8h-17z"/><path fill="#E3E4E1" d="M184 110h17v8h-17z"/><path fill="#4278AC" d="M234 239c2.456 2.553 2.988 3.859 3.293 7.453l-.106 3.797-.082 3.828L237 257h-9c-.22-6.098-.012-11.216 2-17z"/><path fill="#101721" d="M105 83h1v37H89v6h8v1h-9v-8h10v-9h7z"/><path fill="#132438" d="M89 120h17v8H88l1-2z"/><path fill="#D18153" d="M78 192h1v17h18v10H87v-9h-9z"/><path fill="#173050" d="M219 247h9v10h-26v-1h17z"/><path fill="#1B355A" d="M210 146h9v18h-8v-8h-17v-1l1.697.016q3.808.029 7.615.047l2.67.025 2.569.01 2.364.016c2.281-.033 2.281-.033 5.085-1.114l2 1v-8h-8z"/><path fill="#8F503A" d="M148 101h1v8l3 1h-3v10h-35v-11h34zm-33 9v9h33v-9z"/><path fill="#152C49" d="M183 137h10v9h-9v8h-1z"/><path fill="#152A44" d="M77 173h5l-4 1v17H68v-8h9z"/><path fill="#111C28" d="M88 238h10v9H88z"/><path fill="#E27A47" d="M174 210h10v9h-10z"/><path fill="#E48450" d="M165 210h1v9l3.438-.062C173 219 173 219 174 220c.141 2.67.042 5.324 0 8h-9z"/><path fill="#193C65" d="M174 182h9v10c-6.152.098-6.152.098-8 0-1-1-1-1-1.098-3.066z"/><path fill="#19375C" d="M137 182h19v9h-8v-8h-11z"/><path fill="#BD6544" d="M165 92h9v8h-8v10h-1z"/><path fill="#172E4C" d="M202 266h9v9h-9z"/><path fill="#112339" d="M78 210h9v9h-9z"/><path fill="#121B2A" d="M175 192h18v1h-9v7h-9z"/><path fill="#121A25" d="M148 191h9v9h-9z"/><path fill="#101B28" d="M219 119h9v9h-9z"/><path fill="#482D26" d="M106 110h8v10h-8z"/><path fill="#EB9661" d="M158 99c3.125.375 3.125.375 6 1l1 10h-13c3-2 3-2 5-2l-.625-3.375L156 101z"/><path fill="#111A23" d="M173 30h10v8h-10z"/><path fill="#1D416C" d="M183 173h10q.061 3.5 0 7c-1 1-1 1-3.066 1.098l-2.496-.036-2.504-.027L183 181z"/><path fill="#183458" d="m69 209 8 1v9h-8z"/><path fill="#0F1A26" d="M79 229h8l1 9h-9z"/><path fill="#F0F0EA" d="M184 183h9v8h-9z"/><path fill="#EEEFEA" d="M211 164h8v9h-8z"/><path fill="#121B26" d="M60 146h8v9h-8z"/><path fill="#0F1A27" d="M69 138h9v8h-9z"/><path fill="#111B26" d="M78 129h9v8h-9z"/><path fill="#EBECE8" d="M202 119h8v9h-8z"/><path fill="#111C27" d="M210 110h9v8h-9z"/><path fill="#D26D44" d="M185 84h8v9h-8z"/><path fill="#101822" d="M98 38h8v9h-8z"/><path fill="#F9A96C" d="M79 192h9v1h-8v15l8-1v-2l8-1 1 5H79z"/><path fill="#173355" d="M184 193h9c1 4.75 1 4.75 1 7h-10z"/><path fill="#172331" d="M165 57h8l1 8h-9z"/><path fill="#342621" d="M166 182h8v8h-8z"/><path fill="#2C3949" d="M106 38h8v8h-8z"/><path fill="#62819C" d="M236 200h1v43h-1l-1-12h-7v-3h8z"/><path fill="#1A406B" d="M201 164h8v8h-7z"/><path fill="#A8583D" d="M157 210h7v8h-7z"/><path fill="#7C879B" d="M183 110h1v8h17v-8h1v8h8v1h-8v9h-1v-9h-18z"/><path fill="#1A406B" d="M203 110h7v7h-7z"/><path fill="#C87F5F" d="M189 74h5v27h-1V84h-8v-1h7c-.33-5.015-.33-5.015-3-9"/><path fill="#252123" d="M176 75h6v8h-6z"/><path fill="#454B54" d="M69 220h1v8h8l1-2v2h8v1h-8v9h9v1H78v-10h-9z"/><path fill="#EB9460" d="M150 85h7v6q-2.988.57-6 1c-1-1-1-1-1.062-4.062z"/><path fill="#133562" d="M229 146h8l-1 4v-2l-5 1-1 15h-1z"/><path fill="#AD563A" d="M162 222h2l1 6h-8l3-1c1.219-2.504 1.219-2.504 2-5"/><path fill="#EDEDEC" d="M247 125h1l.148 2.152.227 2.785c.07.917.14 1.834.21 2.778.138.754.274 1.508.415 2.285l2 1-4 1z"/><path fill="#F09B65" d="M152 87h2l2 4-5 1-1-3h2z"/></svg>